<svg version="1.1" id="Layer_1" xmlns="http://www.w3.org/2000/svg" xmlns:xlink="http://www.w3.org/1999/xlink" x="0px" y="0px"
	 width="100%" viewBox="0 0 366 167" enable-background="new 0 0 366 167" xml:space="preserve">
<path fill="#FEFEFE" opacity="1.000000" stroke="none" 
	d="
M273.000000,168.000000 
	C182.000015,168.000000 91.500046,168.000000 1.000049,168.000000 
	C1.000032,112.333366 1.000032,56.666737 1.000016,1.000078 
	C122.999939,1.000052 244.999878,1.000052 366.999878,1.000026 
	C366.999908,56.666592 366.999908,112.333183 366.999939,167.999878 
	C335.833344,168.000000 304.666656,168.000000 273.000000,168.000000 
M222.738647,95.839371 
	C223.572784,108.941040 226.650162,121.482079 232.730957,133.136414 
	C236.880753,141.089874 242.078003,148.758331 251.274231,150.882645 
	C256.429077,152.073410 262.373596,149.496445 267.731445,150.252640 
	C273.465210,151.061935 278.962250,153.230362 284.792725,151.053055 
	C285.104462,150.936661 285.412018,150.723892 285.726440,150.714096 
	C287.310486,150.664627 289.016449,150.272751 290.462677,150.713303 
	C305.035095,155.152237 321.710999,144.607162 324.273315,129.219635 
	C314.071655,128.526566 314.071655,128.526566 307.919495,135.417648 
	C301.841614,142.225494 294.961151,142.704453 289.319672,135.585968 
	C285.374786,130.608307 282.185791,124.703033 280.000519,118.721977 
	C273.832825,101.841179 272.904419,84.246025 275.279633,66.562233 
	C276.856506,54.822079 279.708557,43.343136 286.662079,33.366283 
	C294.052429,22.762625 301.914185,22.629938 309.774536,32.795460 
	C310.859161,34.198193 312.687927,35.607265 314.347504,35.859329 
	C317.534912,36.343460 320.847992,36.000282 324.251343,36.000282 
	C318.908691,19.114025 306.059570,12.828392 289.517761,15.106453 
	C282.218292,16.111708 273.803131,15.981362 266.409546,15.097039 
	C252.427673,13.424712 244.184967,15.023385 236.448639,26.832411 
	C222.821411,47.633511 220.914993,70.955383 222.738647,95.839371 
M87.127823,106.804649 
	C88.864990,97.272713 90.602150,87.740784 92.339310,78.208847 
	C92.649132,78.156189 92.958961,78.103531 93.268784,78.050865 
	C99.821571,92.776978 106.374367,107.503098 113.199623,122.841522 
	C120.271103,107.427071 126.952995,92.861855 133.634888,78.296638 
	C133.996490,78.444603 134.358093,78.592575 134.719696,78.740540 
	C136.911575,92.294411 139.103470,105.848274 141.293304,119.389481 
	C145.097778,119.389481 148.488678,119.389481 152.380295,119.389481 
	C147.893341,93.917068 143.479034,68.857079 138.856003,42.612160 
	C130.134186,61.619362 121.966423,79.419113 113.384560,98.121300 
	C105.072586,79.399628 97.223999,61.721668 89.375412,44.043705 
	C89.047157,44.185333 88.718903,44.326958 88.390648,44.468586 
	C83.524094,69.379257 78.657539,94.289932 73.730583,119.509796 
	C77.734612,119.509796 81.181931,119.509796 84.859009,119.509796 
	C85.595535,115.487785 86.312057,111.575012 87.127823,106.804649 
M58.236256,119.742882 
	C62.496258,119.290054 63.107574,117.290741 61.205788,109.200653 
	C52.067402,109.200653 42.809917,109.200653 33.565498,109.200653 
	C33.565498,101.170601 33.565498,93.614182 33.565498,85.609802 
	C42.796047,85.609802 51.721497,85.609802 60.791748,85.609802 
	C60.791748,81.951218 60.791748,78.755516 60.791748,75.154121 
	C51.516476,75.154121 42.583885,75.154121 33.485519,75.154121 
	C33.485519,69.325737 33.485519,63.913067 33.485519,57.967552 
	C43.097565,57.967552 52.489628,57.967552 61.728634,57.967552 
	C61.728634,54.348671 61.728634,51.269249 61.728634,48.279068 
	C48.537998,48.279068 35.652283,48.279068 22.698961,48.279068 
	C22.698961,72.139641 22.698961,95.695030 22.698961,119.742966 
	C34.414368,119.742966 45.850899,119.742966 58.236256,119.742882 
M167.590210,82.499680 
	C167.590210,94.783226 167.590210,107.066772 167.590210,119.381279 
	C181.065536,119.381279 193.951279,119.381279 206.779785,119.381279 
	C206.779785,115.939919 206.779785,112.848839 206.779785,109.261597 
	C197.241531,109.261597 187.987320,109.261597 178.661041,109.261597 
	C178.661041,101.186600 178.661041,93.627159 178.661041,85.590805 
	C187.890274,85.590805 196.820633,85.590805 205.802490,85.590805 
	C205.802490,81.902367 205.802490,78.709595 205.802490,75.076935 
	C196.476608,75.076935 187.545029,75.076935 178.708649,75.076935 
	C178.708649,69.218658 178.708649,63.822762 178.708649,57.986782 
	C188.309555,57.986782 197.559998,57.986782 206.818390,57.986782 
	C206.818390,54.456070 206.818390,51.380024 206.818390,48.279030 
	C193.673553,48.279030 180.787857,48.279030 167.590347,48.279030 
	C167.590347,59.547333 167.590347,70.523506 167.590210,82.499680 
M318.103546,84.372963 
	C321.544006,86.016533 325.164246,87.370789 328.383118,89.370956 
	C333.309509,92.432159 334.788239,97.315102 333.031921,102.851685 
	C331.481537,107.739166 326.845978,110.981468 321.598907,110.848404 
	C316.091125,110.708740 312.339233,107.799728 310.671631,102.366386 
	C310.206909,100.852333 309.761810,99.332253 309.224854,97.538208 
	C305.590668,98.364021 302.263336,99.120117 299.006561,99.860168 
	C300.331940,112.136887 307.835632,119.790253 319.153320,120.899445 
	C330.271851,121.989120 340.516937,115.439949 343.623260,105.257057 
	C347.037262,94.065559 342.759857,84.500961 331.603271,78.866005 
	C327.461395,76.774040 323.062500,75.196426 318.873718,73.190262 
	C315.021912,71.345505 312.190704,68.634995 313.105225,63.829502 
	C313.857330,59.877499 318.103882,56.340176 322.896698,57.133732 
	C327.080566,57.826462 330.957275,60.374264 334.969666,62.102463 
	C334.842102,62.581020 334.714508,63.059578 334.586945,63.538136 
	C337.231567,61.921360 339.876190,60.304581 343.054657,58.361423 
	C340.615387,55.666542 338.794403,52.995274 336.368408,51.097366 
	C328.892548,45.248852 320.578552,45.233025 312.404755,49.194782 
	C305.217987,52.678120 301.320190,58.715202 301.988708,66.956100 
	C302.761322,76.480087 309.605804,80.768387 318.103546,84.372963 
z"/>
<path fill="#51ADE9" opacity="1.000000" stroke="none" 
	d="
M222.644470,95.389191 
	C220.914993,70.955383 222.821411,47.633511 236.448639,26.832411 
	C244.184967,15.023385 252.427673,13.424712 266.409546,15.097039 
	C273.803131,15.981362 282.218292,16.111708 289.517761,15.106453 
	C306.059570,12.828392 318.908691,19.114025 324.251343,36.000282 
	C320.847992,36.000282 317.534912,36.343460 314.347504,35.859329 
	C312.687927,35.607265 310.859161,34.198193 309.774536,32.795460 
	C301.914185,22.629938 294.052429,22.762625 286.662079,33.366283 
	C279.708557,43.343136 276.856506,54.822079 275.279633,66.562233 
	C272.904419,84.246025 273.832825,101.841179 280.000519,118.721977 
	C282.185791,124.703033 285.374786,130.608307 289.319672,135.585968 
	C294.961151,142.704453 301.841614,142.225494 307.919495,135.417648 
	C314.071655,128.526566 314.071655,128.526566 324.273315,129.219635 
	C321.710999,144.607162 305.035095,155.152237 290.462677,150.713303 
	C289.016449,150.272751 287.310486,150.664627 285.726440,150.714096 
	C285.412018,150.723892 285.104462,150.936661 284.792725,151.053055 
	C278.962250,153.230362 273.465210,151.061935 267.731445,150.252640 
	C262.373596,149.496445 256.429077,152.073410 251.274231,150.882645 
	C242.078003,148.758331 236.880753,141.089874 232.730957,133.136414 
	C226.650162,121.482079 223.572784,108.941040 222.644470,95.389191 
M276.168701,25.732767 
	C273.454895,27.485182 269.972778,28.676357 268.193878,31.111689 
	C264.908844,35.608891 262.000397,40.600220 260.032684,45.800983 
	C253.171417,63.935749 252.553055,82.810768 255.263840,101.749146 
	C256.985901,113.780090 260.014832,125.656052 268.437683,135.049789 
	C270.529175,137.382385 274.119019,138.371536 277.019653,140.327805 
	C277.143890,140.272690 277.268127,140.217575 277.392365,140.162460 
	C277.255798,140.113129 277.119202,140.063797 277.019165,139.297073 
	C262.210541,114.845467 260.827972,88.234009 264.544037,60.857674 
	C266.235504,48.396534 270.844604,36.912575 277.399384,25.910067 
	C277.364258,25.726114 277.329132,25.542160 277.294006,25.358210 
	C277.168152,25.544241 277.042328,25.730270 276.168701,25.732767 
M243.481705,100.906288 
	C240.451141,74.412643 242.925354,48.915234 256.794067,25.028671 
	C253.632141,26.572697 250.034042,28.046412 248.136459,30.724878 
	C244.627075,35.678436 241.331970,41.061932 239.325668,46.752224 
	C232.123047,67.180222 231.689926,88.248009 236.482788,109.138802 
	C238.444305,117.688522 242.856033,125.769760 246.843613,133.717667 
	C248.583954,137.186447 251.821213,140.189789 257.078796,139.957123 
	C249.320267,128.023972 245.520737,115.233559 243.481705,100.906288 
z"/>
<path fill="#282526" opacity="1.000000" stroke="none" 
	d="
M87.078201,107.233444 
	C86.312057,111.575012 85.595535,115.487785 84.859009,119.509796 
	C81.181931,119.509796 77.734612,119.509796 73.730583,119.509796 
	C78.657539,94.289932 83.524094,69.379257 88.390648,44.468586 
	C88.718903,44.326958 89.047157,44.185333 89.375412,44.043705 
	C97.223999,61.721668 105.072586,79.399628 113.384560,98.121300 
	C121.966423,79.419113 130.134186,61.619362 138.856003,42.612160 
	C143.479034,68.857079 147.893341,93.917068 152.380295,119.389481 
	C148.488678,119.389481 145.097778,119.389481 141.293304,119.389481 
	C139.103470,105.848274 136.911575,92.294411 134.719696,78.740540 
	C134.358093,78.592575 133.996490,78.444603 133.634888,78.296638 
	C126.952995,92.861855 120.271103,107.427071 113.199623,122.841522 
	C106.374367,107.503098 99.821571,92.776978 93.268784,78.050865 
	C92.958961,78.103531 92.649132,78.156189 92.339310,78.208847 
	C90.602150,87.740784 88.864990,97.272713 87.078201,107.233444 
z"/>
<path fill="#2D2A2B" opacity="1.000000" stroke="none" 
	d="
M57.761845,119.742920 
	C45.850899,119.742966 34.414368,119.742966 22.698961,119.742966 
	C22.698961,95.695030 22.698961,72.139641 22.698961,48.279068 
	C35.652283,48.279068 48.537998,48.279068 61.728634,48.279068 
	C61.728634,51.269249 61.728634,54.348671 61.728634,57.967552 
	C52.489628,57.967552 43.097565,57.967552 33.485519,57.967552 
	C33.485519,63.913067 33.485519,69.325737 33.485519,75.154121 
	C42.583885,75.154121 51.516476,75.154121 60.791748,75.154121 
	C60.791748,78.755516 60.791748,81.951218 60.791748,85.609802 
	C51.721497,85.609802 42.796047,85.609802 33.565498,85.609802 
	C33.565498,93.614182 33.565498,101.170601 33.565498,109.200653 
	C42.809917,109.200653 52.067402,109.200653 61.205788,109.200653 
	C63.107574,117.290741 62.496258,119.290054 57.761845,119.742920 
z"/>
<path fill="#292627" opacity="1.000000" stroke="none" 
	d="
M167.590271,81.999680 
	C167.590347,70.523506 167.590347,59.547333 167.590347,48.279030 
	C180.787857,48.279030 193.673553,48.279030 206.818390,48.279030 
	C206.818390,51.380024 206.818390,54.456070 206.818390,57.986782 
	C197.559998,57.986782 188.309555,57.986782 178.708649,57.986782 
	C178.708649,63.822762 178.708649,69.218658 178.708649,75.076935 
	C187.545029,75.076935 196.476608,75.076935 205.802490,75.076935 
	C205.802490,78.709595 205.802490,81.902367 205.802490,85.590805 
	C196.820633,85.590805 187.890274,85.590805 178.661041,85.590805 
	C178.661041,93.627159 178.661041,101.186600 178.661041,109.261597 
	C187.987320,109.261597 197.241531,109.261597 206.779785,109.261597 
	C206.779785,112.848839 206.779785,115.939919 206.779785,119.381279 
	C193.951279,119.381279 181.065536,119.381279 167.590210,119.381279 
	C167.590210,107.066772 167.590210,94.783226 167.590271,81.999680 
z"/>
<path fill="#272425" opacity="1.000000" stroke="none" 
	d="
M317.754211,84.231644 
	C309.605804,80.768387 302.761322,76.480087 301.988708,66.956100 
	C301.320190,58.715202 305.217987,52.678120 312.404755,49.194782 
	C320.578552,45.233025 328.892548,45.248852 336.368408,51.097366 
	C338.794403,52.995274 340.615387,55.666542 343.054657,58.361423 
	C339.876190,60.304581 337.231567,61.921360 334.586945,63.538136 
	C334.714508,63.059578 334.842102,62.581020 334.969666,62.102463 
	C330.957275,60.374264 327.080566,57.826462 322.896698,57.133732 
	C318.103882,56.340176 313.857330,59.877499 313.105225,63.829502 
	C312.190704,68.634995 315.021912,71.345505 318.873718,73.190262 
	C323.062500,75.196426 327.461395,76.774040 331.603271,78.866005 
	C342.759857,84.500961 347.037262,94.065559 343.623260,105.257057 
	C340.516937,115.439949 330.271851,121.989120 319.153320,120.899445 
	C307.835632,119.790253 300.331940,112.136887 299.006561,99.860168 
	C302.263336,99.120117 305.590668,98.364021 309.224854,97.538208 
	C309.761810,99.332253 310.206909,100.852333 310.671631,102.366386 
	C312.339233,107.799728 316.091125,110.708740 321.598907,110.848404 
	C326.845978,110.981468 331.481537,107.739166 333.031921,102.851685 
	C334.788239,97.315102 333.309509,92.432159 328.383118,89.370956 
	C325.164246,87.370789 321.544006,86.016533 317.754211,84.231644 
z"/>
<path fill="#F9FDFE" opacity="1.000000" stroke="none" 
	d="
M277.020142,139.978195 
	C274.119019,138.371536 270.529175,137.382385 268.437683,135.049789 
	C260.014832,125.656052 256.985901,113.780090 255.263840,101.749146 
	C252.553055,82.810768 253.171417,63.935749 260.032684,45.800983 
	C262.000397,40.600220 264.908844,35.608891 268.193878,31.111689 
	C269.972778,28.676357 273.454895,27.485182 276.571716,25.853317 
	C276.974762,25.973869 277.034760,26.029631 277.034760,26.029631 
	C270.844604,36.912575 266.235504,48.396534 264.544037,60.857674 
	C260.827972,88.234009 262.210541,114.845467 277.010620,139.647369 
	C277.002106,139.997681 277.020142,139.978195 277.020142,139.978195 
z"/>
<path fill="#FAFDFE" opacity="1.000000" stroke="none" 
	d="
M243.582733,101.339897 
	C245.520737,115.233559 249.320267,128.023972 257.078796,139.957123 
	C251.821213,140.189789 248.583954,137.186447 246.843613,133.717667 
	C242.856033,125.769760 238.444305,117.688522 236.482788,109.138802 
	C231.689926,88.248009 232.123047,67.180222 239.325668,46.752224 
	C241.331970,41.061932 244.627075,35.678436 248.136459,30.724878 
	C250.034042,28.046412 253.632141,26.572697 256.794067,25.028671 
	C242.925354,48.915234 240.451141,74.412643 243.582733,101.339897 
z"/>
<path fill="#F9FDFE" opacity="1.000000" stroke="none" 
	d="
M276.945618,25.945084 
	C277.042328,25.730270 277.168152,25.544241 277.294006,25.358208 
	C277.329132,25.542160 277.364258,25.726114 277.217072,25.969849 
	C277.034760,26.029631 276.974762,25.973869 276.945618,25.945084 
z"/>
<path fill="#F9FDFE" opacity="1.000000" stroke="none" 
	d="
M276.992371,140.006073 
	C277.119202,140.063797 277.255798,140.113129 277.392365,140.162460 
	C277.268127,140.217575 277.143890,140.272690 277.019897,140.153000 
	C277.020142,139.978195 277.002106,139.997681 276.992371,140.006073 
z"/>
</svg>